# xmcd
#
# Track frame offsets:
#	150
#	16287
#	34602
#	54247
#	77465
#	101532
#	121117
#	147540
#	165695
#	178262
#	205392
#	217350
#
# Disc length: 3259 seconds
#
# Revision: 0
# Processed by: cddbd v1.5.2PL0 Copyright (c) Steve Scherf et al.
# Submitted via: EasyCDDAExtractor 12.0.1.1
#
DISCID=a60cb90c
DTITLE=John Trudell - AKA Grafitti Man
DYEAR=1992
DGENRE=
TTITLE0=Rockin' the Res
TTITLE1=Grafitti Man
TTITLE2=Restless Situations
TTITLE3=Wildfires
TTITLE4=Baby Boom Ché
TTITLE5=Bombs Over Baghdad
TTITLE6=Rich Man's War
TTITLE7=Somebody's Kid
TTITLE8=Never Never blues
TTITLE9=What He'd Done
TTITLE10=Beauty in a Fade
TTITLE11=Tina Smiled
EXTD=
EXTT0=
EXTT1=
EXTT2=
EXTT3=
EXTT4=
EXTT5=
EXTT6=
EXTT7=
EXTT8=
EXTT9=
EXTT10=
EXTT11=
PLAYORDER=
